<mxfile host="app.diagrams.net" modified="2023-12-29T18:13:46.135Z" agent="Mozilla/5.0 (Windows NT 10.0; Win64; x64) AppleWebKit/537.36 (KHTML, like Gecko) Chrome/120.0.0.0 Safari/537.36" etag="L09iMhEIZPNX0_jESBvm" version="22.1.16" type="device">
  <diagram name="Page-1" id="lAMg-iXDFdTPUpiZv2BZ">
    <mxGraphModel dx="794" dy="412" grid="1" gridSize="10" guides="1" tooltips="1" connect="1" arrows="1" fold="1" page="1" pageScale="1" pageWidth="827" pageHeight="1169" math="0" shadow="0">
      <root>
        <mxCell id="0" />
        <mxCell id="1" parent="0" />
        <mxCell id="hdg-Y0Jul9-JvsKTpmKE-1" value="&lt;h1&gt;High Level Diagram&lt;/h1&gt;" style="text;html=1;strokeColor=none;fillColor=none;spacing=5;spacingTop=-20;whiteSpace=wrap;overflow=hidden;rounded=0;" vertex="1" parent="1">
          <mxGeometry x="310" y="40" width="240" height="50" as="geometry" />
        </mxCell>
        <mxCell id="hdg-Y0Jul9-JvsKTpmKE-2" value="dsfdsf" style="whiteSpace=wrap;html=1;aspect=fixed;fillColor=#ffe6cc;strokeColor=#d79b00;" vertex="1" parent="1">
          <mxGeometry x="230" y="120" width="500" height="500" as="geometry" />
        </mxCell>
        <mxCell id="hdg-Y0Jul9-JvsKTpmKE-3" value="" style="whiteSpace=wrap;html=1;aspect=fixed;fillColor=#dae8fc;strokeColor=#6c8ebf;" vertex="1" parent="1">
          <mxGeometry x="320" y="180" width="310" height="310" as="geometry" />
        </mxCell>
        <mxCell id="hdg-Y0Jul9-JvsKTpmKE-4" value="Travel Agency" style="text;html=1;strokeColor=none;fillColor=none;align=center;verticalAlign=middle;whiteSpace=wrap;rounded=0;fontStyle=1" vertex="1" parent="1">
          <mxGeometry x="425" y="140" width="100" height="30" as="geometry" />
        </mxCell>
        <mxCell id="hdg-Y0Jul9-JvsKTpmKE-5" value="" style="whiteSpace=wrap;html=1;aspect=fixed;fillColor=#e1d5e7;strokeColor=#9673a6;" vertex="1" parent="1">
          <mxGeometry x="360" y="220" width="230" height="230" as="geometry" />
        </mxCell>
        <mxCell id="hdg-Y0Jul9-JvsKTpmKE-6" value="" style="whiteSpace=wrap;html=1;aspect=fixed;fillColor=#f5f5f5;fontColor=#333333;strokeColor=#666666;" vertex="1" parent="1">
          <mxGeometry x="405" y="265" width="140" height="140" as="geometry" />
        </mxCell>
        <mxCell id="hdg-Y0Jul9-JvsKTpmKE-8" value="Travel Package" style="text;html=1;strokeColor=none;fillColor=none;align=center;verticalAlign=middle;whiteSpace=wrap;rounded=0;fontStyle=1" vertex="1" parent="1">
          <mxGeometry x="425" y="190" width="100" height="30" as="geometry" />
        </mxCell>
        <mxCell id="hdg-Y0Jul9-JvsKTpmKE-10" value="Destination" style="text;html=1;strokeColor=none;fillColor=none;align=center;verticalAlign=middle;whiteSpace=wrap;rounded=0;fontStyle=1" vertex="1" parent="1">
          <mxGeometry x="445" y="235" width="60" height="30" as="geometry" />
        </mxCell>
        <mxCell id="hdg-Y0Jul9-JvsKTpmKE-11" style="edgeStyle=orthogonalEdgeStyle;rounded=0;orthogonalLoop=1;jettySize=auto;html=1;exitX=0.5;exitY=1;exitDx=0;exitDy=0;" edge="1" parent="1" source="hdg-Y0Jul9-JvsKTpmKE-6" target="hdg-Y0Jul9-JvsKTpmKE-6">
          <mxGeometry relative="1" as="geometry" />
        </mxCell>
        <mxCell id="hdg-Y0Jul9-JvsKTpmKE-12" value="Activity" style="text;html=1;strokeColor=none;fillColor=none;align=center;verticalAlign=middle;whiteSpace=wrap;rounded=0;fontStyle=1" vertex="1" parent="1">
          <mxGeometry x="445" y="320" width="60" height="30" as="geometry" />
        </mxCell>
        <mxCell id="hdg-Y0Jul9-JvsKTpmKE-14" value="Passengers" style="rounded=0;whiteSpace=wrap;html=1;fillColor=#fff2cc;strokeColor=#d6b656;fontStyle=1;gradientColor=#ffd966;" vertex="1" parent="1">
          <mxGeometry x="325" y="520" width="310" height="80" as="geometry" />
        </mxCell>
      </root>
    </mxGraphModel>
  </diagram>
</mxfile>
